<mxfile host="65bd71144e">
    <diagram id="HIP3nbAZw_EuaXWnEj3U" name="Page-1">
        <mxGraphModel dx="625" dy="516" grid="1" gridSize="10" guides="1" tooltips="1" connect="1" arrows="1" fold="1" page="1" pageScale="1" pageWidth="850" pageHeight="1100" math="0" shadow="0">
            <root>
                <mxCell id="0"/>
                <mxCell id="1" parent="0"/>
                <mxCell id="7" value="http://ics2o.mths.ca" style="swimlane;whiteSpace=wrap;html=1;" parent="1" vertex="1">
                    <mxGeometry x="30" y="40" width="760" height="480" as="geometry"/>
                </mxCell>
                <mxCell id="8" value="&lt;font style=&quot;font-size: 20px;&quot;&gt;Enter two integers :&lt;/font&gt;" style="text;html=1;align=center;verticalAlign=middle;resizable=0;points=[];autosize=1;strokeColor=none;fillColor=none;" vertex="1" parent="7">
                    <mxGeometry x="20" y="95" width="200" height="40" as="geometry"/>
                </mxCell>
                <mxCell id="9" value="Large Number" style="rounded=1;whiteSpace=wrap;html=1;fontSize=20;" vertex="1" parent="7">
                    <mxGeometry x="30" y="170" width="210" height="30" as="geometry"/>
                </mxCell>
                <mxCell id="10" value="Small Number" style="rounded=1;whiteSpace=wrap;html=1;fontSize=20;" vertex="1" parent="7">
                    <mxGeometry x="30" y="240" width="210" height="30" as="geometry"/>
                </mxCell>
                <mxCell id="11" value="DIVIDE" style="rounded=0;whiteSpace=wrap;html=1;fontSize=20;" vertex="1" parent="7">
                    <mxGeometry x="30" y="320" width="85" height="40" as="geometry"/>
                </mxCell>
                <mxCell id="12" value="" style="shape=image;imageAspect=0;aspect=fixed;verticalLabelPosition=bottom;verticalAlign=top;fontSize=20;image=data:image/png,iVBORw0KGgoAAAANSUhEUgAAAM0AAAD2CAMAAABC3/M1AAABsFBMVEX///+848zdLkTB6dG438hgdGhcb2S+5s+96tK54sq+6NCAAIDl9OvgLUTgJkDgKkJ4tFbhIT205Mx1sk5VAADB6NN3AHeu3cbjHDtRAABXAADjJkSw4cl5AHmFpZJ0sU10uFej0bvLACyQsp7g3t+3tLaas6FRUFGv1b+fw6+cx7KmcW3Y7uFGSUeCf4HS0NGNioynpKabmJqw08HIxsdmgXFvjHvWAC9PZ1lymmmelIiyLz2nbGm1Jjjr6uuenI9lnD+aq5uiioGtWVvv+PNeZGBzcHKElYVkqk9jk0rKKj7DDS6pZGM3Qzy9FTCtPEWtTlOmfnc9AABEV0xpikSWcmzLq8vk0uSVQ5VraGpQHhRbOzFXFQdvZVl/p4FUgDlJRTNjU0hBFgCGJSxqlVmWISx/h3hNMig+T0VjmztOekp+TkmfSTmNZj96dkBRjkCuUlVwmmRsOjasODmaVj2iESZDXEFXfUZLHACSIS9qpFlTPTKGbkBheFWxfHctNjFyc2VwWkVmakVYeD9XIBtIhD5pGxm3iLeONI6rcavWvNafW5+0grTFoMWTPpN3XziI4PELAAAby0lEQVR4nO1di1/bRp7HyHRkBdkrB2LxCMQWGMsskISHwcYY20cImNiwJN1CCLskJJttm6bZZ7ft3eb2ut3uo3v/8mkekkYzI0PwS+n19/k0aWSQ9dX8XvN7TV/fj/Qj/Ug9oo2F6bu37x1tbW3NWf8d3Zu/e2dpqtcPdRVauHNva3V5wshkgCJJ0gCw/lDCGXNiZXXr6Pb0Rq+f7/K0NL+1OmHC5wcAhCBJH4TR3yEAr0oZY/nw6M57gGjjjoUkDHGEKHLQELIwAXP5cH6h14/blO7MDJjWg4ZYYtEQRJmJw/mgytHCvVUhFB80GFFmZe5Orx9cQNNzK2EvFCA7//RDAz+SzMP5gInQ3ZeGJDHvPXNs2nCaoEELNHAUIIa789LkOUx6fBIehgQuQAN/Nrx8FJD1mX4gwBIC6VHTXNvZ3FmzVojTaYrC4Rm412sgFk3NTXBYFEUB0pPHp5M/sej6LzIcmvDIthJifkvKHN7tNZh7y4DFIifK+Xw6/s0vX9+/devWl6chjtOks6HM8KK5OOz9Vcmc66kBWnqQYWTfAlOp6Zqm158+U/uLhXojo7BogDmaNs83Jzd3Tr2/CqTlHrLbvRVeYORHutpvkfp81/pb7Y/WkpTcAEWWFenFEGHCHZNlt+yDHi3PlGBhQiCb68ekkr+je7KDRk7mZ9cr2bNf/WLn/q37O8Yw9zKANHC7F2DurMKFYaVGrmj9XlJr4zYauZLSolFNP3k2Nta/279bkrm3YS2PMdN9MEcTcGFAJu2FI+9FGTT9uSzAaOSKjvEVd9Haqbkyq6jR8oQfdNuWzpmYy04eS2CYYhgBGt0kaBIp1fuJWowL0FjctjrdTSwbD8IIgCXPmbBxemosSv5o7LUBJV0AVAQnJK10UXgWXhJxUUZeGJvXLfr1BHks+YBDk0pgueFFql8vU2hoYNJE11T10qEUUuR4PC6box/fgjS5tkgeQylxWqAo+6MpuYIjnT2WXKUiGUddArMqheT05/VUfe/JySefvvrss1eGo6qBybJTrErQKHnB2jhopO2h9HDYNMNECCWzK6oNgXmUi1k6KVp8OqaOWZRKO08VrzOiruWVEJEbHo0rN/LJk8W1zcnJzbXFLsJZsMAotjyr5MnVWsJ5qnVGcCwlQNBwywZFCq6nLMuSObqyeR36B5sGQSiZHWe2KUtmQnIjxjwWXADCamnvM8f2ZdtPG6+xGrpgfaaMl2b3DtLbox8/fH3//uvTsLtjNTqsCjYeQAlJpNiXDN0Xe3G8UPW043XKnzMvITorh+RyXY9Go/rzp2PQQYjuUSZImuisop5Dr9/xxbwrQLRamv40ij7AaDh9p6cBMHN4wXaL+G+tSrk70konzehMBrIBSHJrE/vcfQbLi3Z5KZUEDppQwstqUHfL+/Z62R/laF9JWu2ckzNPNHFTTrPUWlWPxTRdj8aiRNnZXueBZ3GgtRHc6oD2RaUHnQKztELMSryoNn0EOd/4PJ9NrzeqJlYO9o4gQavvmKUDgMlpbc+LsVzQDunpjZeOM7bP6bSSx+GCezK4MbMjajYaS6YcOGrKMjYXogkBozOaYC7ivHvOR4FGpQk5e0+5lLM2OClrm6MhJhQolOi6d9cjDXRiN3rXcB6Ys4PIcFwGTUg212dLiWRpfTaLmJCXG+2AuVcnRGdjldo2y4zgaBXRtkuEBhp+gMIDQHgnjmnh+rXfiM7R38E6kFgPXwoNQ/x+iGdaabndvHbH8HzHuMe31B41Z7QmaDiLCo0Q9+vt5rVDb3hGKVOSo9bHm4PhooPum+EscZQVG/hDZnujoPcybGwGGfxYVCWq9l3QSC9M/0CCUDtKh+2MuU8t8yHNRzk9tb9ezOn19AV8xqCRXoykpWE7NGI5ap6lqQpvlmmnIpgRfIGcNJKWfTSN+EUrw6DJjLwYNtberBnY95fXaclJiQ2XNNA+f21hhQ9qwsAgckH9sICI+/9UTtraMo+aO5PWxuz6a7zLTBSRZ4HUip73Wedw+3ZuMxe/ff5tPjl2gxYYDZDHs9mEfHYMcwe3rp8T6QHJOnQNatY2J+erHKXldi2OeGmaEyiPlmHQAmc1cJQju1fL6bXq8W8Kv/3dq999ErfvChKV2XxyPH0w20QC27Y4R++MBeYJzzIoaPHGJJlCxUwhDTj2bUFVY2Nj0YITSwhBJxV6CU08CmmgPWptY+Ddlgb6zkpmdJkKWkA0TjDHDo1o6xfqQpoy821BM59p+uwRr1CB8dJsdb08Mfrxwx0YtFgknOaxtxhVKiG+pZikw7agOWy2NFL6ZxlA6TUljYMWv3/aD6MWY/sJgobZdyIFRnnlFy8/MNtRJjFtNNNo4ZEnw1QKE2TtPIAdtGiQKIf8X3zywIl0AvOkKQPgFzfXBjQzjuoRfcOLofDpzubk5jnGLFftZ1adRwZkbXg0TjwDnDwGw6HQMJ9ro79rpXUlvWE7NZLJ5PyhsMvHZ19CYf/J5Bq6GGcDgHgrCeVGEFO37b6yPbRovHmNawu8COh/t0EP3CVfoKRHJmC9GbCxpCvWLjI59AcYoby/Zg6jq0lxpA1pAQ4N0gJAUYD8+GwNpXUn/8iAOTuj8wat64EtsjSRkTN50TCMRfzYiX0dpjBrXxRhhHKsgDE3QcNHAFA4LVmu5NPxoT/g2gJj2AsG5w0WQ/gyWGl112YzmrI9urgGE0+bb6C8xhtYCtQClpFYDe8++W0+THh47Q3Fg/FHKVRb8MWfxvqLxXo14WU0ZeQtzBts7pxm2sNqd0wUSZLlJ7/68pbFC7c2YcWCkyRwhF2bRaaQe2QUa0ZouOSBXpb3SFr3T/3IqEaLjgVCeYM0kzdomdWOpHipWixWS8dfvfr64c7D/wzDtXJVF802Id/sAUTDJg/UWjzNvZMDrLOV8dLB+oG5PfTxw00qbyAtt+jdrCYKeszyq/Tj5zDtNIZDAPxDE8Muz7IwddtPC8kFzy9pB9xqOe8E5Q00nDfY3Y3annWrBnRhYp/lD5iq5NGQxBLnv1grECJogOcztZYQvBOU1bIjoirOG6j9+qwNpzVH+u42513VZeHa1HCkg8044cglyd/sUUraeit+78S97uQNiGVqUXDu8TYP3pmPgtmBI5bVcGaT7D3HC1q/GtOsjYEKXzcfzkZrI0io2NHHFgVnVeBdWf4IH4i2EzjMo5AsFUEDEtVUqlE5KKZSFVkUGUQLz6qLfqIY4Q2MVrJTG8sCNJa25N17rUJYW35EA81hq+pG1RMJqO4T40iXcG51rNEcTSjTSsJgyRD48fABuZIZ14MkhhUHLQhGcawTcO8EPbUgd+2EDKVW1MCdLJ/jTyVDfEJWrTvJV2Dp9KiWqmuaG7TwidxyAoL2CAL3yEl5t6QG5hVu1RFrc6+VTlOAeP4gn4yblQMnaOGDhlUDpOyAdyicnZD0QQtotqQE6+KT1Jdc8Fz3JgkUNmjhg0ZhqqJIIorXdTn79i3tcbYk7s4aLvQBnjy6LR9+5JcjYBKoRGdwWyE32QUmlq6O5lDiMhJ2aEKeRe8VPU20IayauxiNVzfaQRxu8+Amu1rxbWDsiTHubo7VcoAtV6qW06J6IdFsB9wEjeW+ui8rVrc9aJYhci4ft6CiN1Yk1lBSCQm5ZLm549nKev7CuLp/Nmq8oceimqX/YtGaaa8Ao3voLHX46lucBVgRGC9SL8qTRcMpzKYRygvRgHilUS1ly3uNdUqRyJ9TRlulVQy4eupjCaJRTGQpY+plBOSd0fC1BeiZkxR/5+hC4xbM5xLa8inpmq6n9gs5TW9cJCBXQCOGaNZg3iAF8wYefSltXRkNCQwqiVLZcq+ypbR8NTDvjsb6zoP1fDJRnl335g1aQhPGFIm4f16FQh9k3vl3IujrIsyXhlpAczjQJvpzu240cPXw7bQptYkGQu26U8ty0zq9u9z43unqaJaCgcZTxH51NAsTl0MDLkpXcF14l3hu9+aLdGnk1e3NFJe+FebTpSc/k0LAN9XOo5FMnx8TXQ+fnFHR/MjVPZsNtoQjfMz3Alpe+mhaWjS5pjpfNFJ5xAAC9NL2iMldl94OZUKGYZj47i34aX2rXjTSk6HMcHiReWyYfn4D089cF5oPmvDIE8lNN7iUGXnLXw+PbBs7k9evT+5AIQbZFuqHvClPkBkqm282N91eQBRwz4wu37+Feup8lYa3zmZ7iKQb1rz89wKnISbJdYCi+enRj6/Du0++geLTUghqy0GDegG3Rz29gEoiv7dfza+M/uGzh6/v/+LUV7jdKlX0gGePUbrh+uYpdXeLHn9FX5fT64Vio/L25L9fffbw4V8wp4GJFlI494izLydKB7P55JNf/ZXqBZTLNbgt0X7/FPV5jDX8CwhJZUq8VC0U9srHX/3vZyjdQDjKvj7yS3IdpSEe5aKqGtOeH6ObjxVwmXgrwc7bWPXKedwLOPotTKTt1pCL7tTM9+/iv6PiLjQHDUgWdOsBo/rT3+N0Q8UOjxZhGiKqPS3i67ByiA2AWJsRFNBevToY4gwoedKQinoB+1U1h/IEXNyV7nQSoJFJPq5/19644D6veNF7Xc2lFUH1Km6vuLrxtA0OF4VCsUBBGm3PL3KD6mz4Yg4UiuGb82INWVAnjUN2LVXdQRXNPwaK0wpSnA1PzXwm7EEj6s+DssDnpPpTCWDw0dt1udV0FFRqgn4zTdjP4EUDrQo9AUbUCQpDJlxXDgylSD5oWlFpfX3z4u45hIYrdKDbVrClNaEpBBegqYrQZIWR9ZaUAFYDIjSW/Mq83NAlWhliw399TmY/8ClRHCcToLQ4UFCRD7v5WlEC2FPzkRtBowcOSWIbPjG6hm24g4ZP06VgdpGXJ6hkRDoNtFwwYPk2gF91KL58LglXaMnmwX6jWnp7/BfLFO78j2lzmp9O4/tdofzxK5ZKtBaFhgQFhysFQklOLgWG08/QhsdiUf35t9gUVu2cNJ/OxJzJK2MoIRxGmHNsUWxwgJCrdcCPwRocdNWytOSfxBZqe7JjPRnWJF3SHFMhO8lm76DiaVFs+pDF4ewbTg6xiQmUr+BtqtO9yv68nZRXGJbFeTrGDMFEVRuqB2HB7TjbC4gdMq+ORulnQc7S7SxmWM1JNDOZQWz0Qdbz09Cpa0PZLWI171vVSRZSztOPjpaGT8yihyPVD550tZuP8y6DHUT3/LRatNZRakNDHtyxedptYo6vLO/DL1SpmvmmaLwthW4+zhNDd4vv4w109xhCaCrtKVO9F2Z6AXNOniU0vq9req2Y0jQS+xbk+qEVImjIbVC6QaPSDUqZuu44FMC6u54r7Nd0vYb851Y1GiTkR7u9gNFcmbL4crlSTsjJUsX0SfLhPjRnAkw5peupRtF6B/t0ukEuWddr6HqV2iTJ6bIpy4lyOYHeX1tq7+fQVtBcXy8lk/n1ddPbjgnTBrA2014tznvT6alWSrJUTsqyWSp7Nw/WC4FpiHTJmxHAXisegSW1XAeJCG/ZYA4NuL2AfsQZFWRT3SgHjjDxM7qsW8M/Ff+7t6Uc2qKX79BHwHljTl1ni9RawRBFty/sS6O+lBUcvQTagkZ62R4wTTsJAMt5jGuNDfvl0XAsaH9P+9oKb/vGlkBmhBmdxGTH8S7h0mik7W0xnPYtTZPFkb86CQ+HF8P07CTaRyWW9rJogDn0Qhoe5vsJ2trxeddHctBwQRjLPaeaTxJ1ZL5V24a/Axrp8VfDxtr5+anJvL52Lo1QrcHaB+ntN/ZwwUXnAyUJrWC9mNO0VFpcbSdFQhxZ2hmYo9vn8H7uJCby2URb53NMs3kpGMs9KCUe//L15n3UAEDXLoyX8mnLRObzSaesjImf/0zxpoKAnDDSpjwx9Fc0iencYBqZ22RrbGL6V+FcN4tyXzwbG9ut14tMMyDyDSgPgZ07OLQtheiED0jsWa6NXv/NcaP+208/fc7crn3tkYSmPKkcZ7hgwZ7r1twkMdmos8dh1G/odHwm6hoSs+KzmCVwKjMmDrS1rxgRbULd/ZXtlHkDg/5oUAtSeGSANDsQ/nXKvgWTmEIdaMi3aM59XYIIW67pvAS7HjpePtibLRtOvyFZbz54plMDIKSVFiM1IqJ4TRDo05sm40n+xiySfsPdsbF+u9+weclwR/gMkjtmRISGcQmAN8uP4wI14vSQIE20gPcyzcq5O8NnkGbs8Vmi/kBGDYRP3tIdZygCNWvzp9NvaFe88kNtnLXp3OykB4TXBP2BzJwRFFNfNM2QRKHhJxTh0QiCYKpTyC9NdGy0ty06giBszZMlRNnrc0sJv8YdZwiNIKlAKoP5T7SyLVIdnAg3jYs7+Np4d+IYKmpks9c+aOw6Z6ZUvN8phgXhNjsBXiJTurivd1s8kvn1vQPz7fEfH35535lki9CMc2FQ20pxWgWX91tM0LEJXZiOcKUAmx+wfQE8yTaqfwtj6v2xKN3j4Ss37J7IUWnSy06PJ0cD4dj9sv2S7ex1/y6JqZMQIEbDJdGcXgp2hBnW99Jh56crz2X4hJg9E5Wfk4gL9X2mjzqtG4xzESO1AR3wAYRwvBHyKFkagRnEOH0mXLrjErwylcOhzW6AwXDoiLpTTM6nyUgfEImqM/xEZX2VMsW6qDsCgdn48OedhzNjonGqMJarWULvTFIVoaGiHKzRpWf2ypUcrKrRoqqKItRIZjZu3LzRBThHlqKWy9W9UtKsVNezTj8J33WP23WEMyG9I+TkUrHeyJf26vXZOAAADbz+/ua1a9c6j6Zv3jKjOJZLNwAI5YZCwyR8vI6qIsdlBY42li1X4gFSzT+/ce3azX92Ac70quh8CL7vFBt1J0dA9Snr/nOFnHm9f7MW58b3XYAz9SDMx3E4A0l6DW00YLyhR7VczZIP3b/EaMWtCvjOYrVuiI6lCwwODueikLIodycdz89WsnGzMlv2AQNCLynNvGHxWldEx9q+rbJ1s5yLQtQWFeWw+w19tqqSMefxZv4BRefvXYEzNcfGJBlWs5taLx25BatshPbvUHT+0RU4fbdXQx48TAGj3UN7STTWwvAbTchqN7t0OM7UjPfAmDg94MHJXl8KjZQ5FO0zoZq+9u/uoGEP8wG4yw3HDp3s9SXQSCG/81W+h6Lzt27B6bt7mHHxKGlrh6PDSXVaytFbF6KRwMqMbzTjo5vdUtOYbh+666MkDw7K4/HywYHj8VyERgqtzDTbytzsmpomdPfQsA/1wurXk71uhgZImeWj5tuyrnk4Lk3PsAeuUS/fDw2QJOMSx639C/Lah91A4dLC/OFESAjIZ/aDJGWXZy6VZ0IeTtfPMFs6OkRnLl6IBh4maS7P3L3kE3bRw/HS0vzhshGRPJA8aCAQJTvxbmdiftg9D4eljen5rdUVI4N7Gq29l/QBKklB/wyZE8uHR3ffNRzzzy56OAKamr59tLW6urwyYRjmS8MwJiZWBla3tu7dWbqSANgeTi/4zaGNqYWlaURLCy1F+5GH81Hf37qvDDpCMEpw8+83b3ZZU3eKPrqGqLtmtHOE0dzo9WO0g6Z+/uF3GE0XHdCO0fc3buC16eLuoIO08RGB812vn6Q99CGG8wPR0WR5fig6Gm+rfzA62lqef9+4drPXD9FGspTbD0FH27Tx3b96/Qhtpd7tDH6kHxANRtpFg72G0gfRiKNV70w/MDT/0Wsoff8P0Vyug+Y9QeM3qyjoaMSTmtKiWUX8USCRXiOBRKGR0mUBHDKrKO2ZSSRtn7FwAoYGZEbO0Olf3grY7aHFU2omEf7R7NBbrnOn10gguWikJyeSebq25rTjsLOKqDkmZ98MG+c7O+cTzrXIcK+RQMJo4HpkRrbXfu0ejA7ipb1GY698QmYSEU4DsHMnPPLiHPUmTLpT0n7aaySQIBpFTmaTsjGK23HwYCg0RhsOYnj63J1JBOtiy6Vy0hz9GJ4Ecv/cPQokEK4ARBPPF1NaqvHJyX7hd69efZom51AIZhWhzh1NTz37ohDbLfy2To0qDYSCttDE91Gxa6z47Rg8/QsfjM6XlMPyz0QRlcSpu8/geWGqSlVWBUKl9Q3KFdHB6MJZRc6oE/tH+6m+pl4DQTQomKteUoTTfUxBjbXTHRIIldY3KD75V4hGML7J7gGIBEKl9Q0KTmWuyuJZRYJTx+2es2AoAWtthGdM88Xham1csDZ2WXIwlEDfIP/CoTDwIz/Ugiw4Q4xUWAbDE7DQ8M0gsM6Nb5OxpElwFhKxOMGwnVBDc4+IuiS4Nhm9DPhRcnZvQkDExkLDWhbcW8HPKkoIquPt3oSAMJrlC7C1rliyhbOKWDVgK+iA6GeIhrWJpPeQ0dF4aiEzccueSxkURrPQMO04znE0nj4E7JExBzjbI6qCotGQD+3VavbcKXsmkUofjeBdHGdpAqLREBpPO07U7SiXSymNzCqyj0bwDJHSqsEynX14t4Za/tWoZqnqaJ1qjFWSpVISziQqO3WWSjoVtX5S12KqVrAPhA+KDiA7aTmfytVnK41UrpH0zBpQuFlFSrZaqJbNSqPwaNye8B0UHWDHBZTxJDr9K3nx+RRoaAHqmiUXgqMD3JgNoP4UQGgCL0BLc7moupTxhxOkpbkUGmkbHfwsRhQc9dx3uRxBZuittJg2zNAw/2GgluYyaKS3J/CI2euTzrx6Gk2ApOYiNDh4e3zGDpp3KVBL40XDiAYM3u7vH6RHD79+uPP6oTN1hV6aXj+/l2g0Utkz7wNkizB4q0XJQPl6mZtPFpitACEKDUiPvJCAm8YYJ+eLqfZA+VSWU2u9fnyG6GzU8Zlsnq6dGnhai5JnAx3cYPpgqYA+2hcA6dH02iRMeWyiLmTBwc91L5qg8RlBo1geWlx+MfIlSnmQE0L4aSTegVGhSND4DKEB45ViKlXbe/zNs09fff31JwmsupgTqQVogsZnEA1IFOEEMjX6p2dj6IyQIhlLLDjkmJ6jEyiXhtBgxDlZ0s5jRHEkxv/g54AKTR9Ewx+Mixv7+VC0PUMGUbCcAEKDgiMD8AgJ/pRejT7EsNcPLqRBWXCcAz7qgJswQ40GC6AGgDToO3qFExxKbAIKRsxpuEKFHfzhHpgbRHWGaDDCT+6zBwF60weutQksGAsNP5vMjvx7A7XOYUjBBQPtDZvAcQdokuw7MkRuZDO4YGBUnbUr1IhI+RGcn1usUQPlgwwGejZsjp069zkkm5VSUk6UK2R6QSSo2gyT5XUyo9bcOYBIduwpuuTfgQaDfGhvVqbJFN1ghZsEhHMElORo6z6TfALqaHoI7dbQIR5qNKp6z8hgwQSbyyAhNGB8L5erz84Wc7mq35HcgecySCQuICezcVmOZ7N+bBZoxeyQE+UA7p/v6cL0XS5HEAm4XnbpYjSR4Ksyhy5C8z5huQjN+4WlOZpIgHLnlyM/NJFIZPh9kX2XhGgglPdtWRBxaCIIyvu3LIhoNBG8KO+F1RfTYCRCFgQCeV/XxKbB4WELxE8HB99zHD/Sj/Re0/8BJCT5qcjeo50AAAAASUVORK5CYII=;" vertex="1" parent="7">
                    <mxGeometry x="530" y="110" width="166.67" height="200" as="geometry"/>
                </mxCell>
            </root>
        </mxGraphModel>
    </diagram>
</mxfile>